<?xml version="1.0" encoding="UTF-8"?>
<svg id="Layer_1" data-name="Layer 1" xmlns="http://www.w3.org/2000/svg" viewBox="0 0 1145.75 1080">
  <defs>
    <style>
      .cls-1 {
        fill: #b28769;
      }

      .cls-2 {
        fill: none;
        stroke: #ffe594;
        stroke-miterlimit: 10;
        stroke-width: 10px;
      }

      .cls-3 {
        fill: #ffe594;
      }

      .cls-4 {
        fill: #fc6565;
      }

      .cls-5 {
        fill: #e8cfbf;
      }
    </style>
  </defs>
  <path class="cls-1" d="M423.19,720.59c5.67,8.96,29.6,44.95,71.46,59.26,35.61,12.17,78.12,3.07,106.1-20.57,45.68-38.61,21.3-92.57,69.92-133.61,17.31-14.61,52.49-34.86,77.74-23.59,55.92,24.94,67.45,206.26-14.34,280.28-19.44,17.59-70.43,52.91-135.56,57.95,0,0-.01,0-.01,0,0,0-178.72,27.12-175.3-219.71Z"/>
  <path class="cls-5" d="M426.07,727.5c-1.65-4.38-34.42-87.57-114.45-100.44-37.7-6.06-68.52,6.27-82.67,13.14,42.36,4.27,71.93,16.21,91.29,26.52,12.97,6.9,21.76,13.29,44.71,26.89-14.65-3.94-31.42-5.82-49.84-3.41-43.31,5.65-70.49,31.58-78.97,40.38,36.87-11.59,65.83-12.17,86.03-10.3,11.95,1.11,25.27,3.48,43.73,5.24-15.92,3.59-33.11,10.78-48.76,24.28-25.97,22.41-34.25,50.62-36.93,62.06,22.69-27.46,44.96-39.4,60.68-45.25,40.08-14.92,79.56-5.9,86.12-22.81,2.15-5.55-.08-11.74-2.49-16.28.53-.01,1.06-.03,1.56-.04Z"/>
  <path class="cls-4" d="M742.79,588.89c-.1-23.24-3.95-38.75-7.17-48.14-2.57-7.52-5.26-12.67-8.53-12.75-3.19-.08-5.72,4.71-6.99,7.19-4.02,7.83-5.75,17.79-6.31,27.58-3.73-13.28-8.18-22.12-11.65-27.83-3.06-5.03-9.31-15.32-14.54-13.91-1.28.34-4.54,1.51-7.2,11.92-2.47,9.67-2.78,20.83-1.91,32.08-6.88-7.87-13.08-13.08-17.87-16.57-5.37-3.91-16.34-11.91-21.88-8.57-1.12.67-4.14,3.06-4,14.59.14,11.4,3.41,33.53,26.94,66.09,7.77-6.72,15.35-13.28,22.79-19.71,9.9-5.33,19.8-10.66,29.71-15.98,9.54,1.34,19.07,2.69,28.61,4.03Z"/>
  <polygon class="cls-3" points="829.82 667.48 783.12 650.76 782.44 667.56 782.1 675.78 781.34 694.44 829.3 680.37 800.68 672.55 829.82 667.48"/>
  <path class="cls-5" d="M606.69,711.28c-33.55-16.51-62.13-23.88-81.8-27.54-16.73-3.11-37.76-6.78-41.7.46-5.59,10.29,22.09,35.17,30.55,42.78,2.85,2.56,6.01,5.27,9.51,8.08-1.3-.05-2.57-.08-3.79-.1-10.17-.15-34.49-.51-37.03,8.09-3.01,10.2,26.39,27.3,35.37,32.53,3.08,1.79,6.49,3.67,10.23,5.57-1.62.1-3.18.22-4.66.36-9.36.87-31.74,2.95-33.8,11.12-2.45,9.7,25.13,22.53,33.55,26.46,16.57,7.71,42.88,16.83,79.95,17.74,2.75,0,44.56-.53,58.61-26.06,14.62-26.56-3.01-76.19-55-99.47Z"/>
  <path class="cls-5" d="M630.5,709.52c-14.7,12.2-29.41,24.4-44.11,36.61,0,0,69.14,16.69,84.86-15.37l23.64,54.14,43.36-51.37s42.71,51.16,75.6,37.52c-7.18-22.28-14.36-44.57-21.53-66.85,3.55-67.54-31.1-116.66-65.99-120.43-38.19-4.13-71.67,46.61-75.31,52.26-19.07,29.64-20.68,59.66-20.51,73.5Z"/>
  <path class="cls-1" d="M570.25,935.8s12.34,26.79,29.39,24.13c8.22-1.29,17.54-9.42,27.1-30.71l-56.49,6.59Z"/>
  <path class="cls-2" d="M600.83,950.27l-6.52,118.62s44.24-36.3,74.03,11.11"/>
</svg>