<?xml version="1.0" encoding="UTF-8"?>
<svg id="Layer_2" data-name="Layer 2" xmlns="http://www.w3.org/2000/svg" viewBox="0 0 1145.75 1080">
  <defs>
    <style>
      .cls-1 {
        fill: #fafbff;
      }
    </style>
  </defs>
  <path class="cls-1" d="M1069.89,500.93c0-103.96-110.22-188.24-246.18-188.24-30.2,0-59.12,4.17-85.85,11.77-8.57-78.48-77.08-139.63-160.33-139.63-89.05,0-161.24,69.97-161.24,156.28,0,1.32.02,2.65.05,3.96-16.28-2.59-33.15-3.96-50.44-3.96-135.96,0-246.18,84.28-246.18,188.24,0,55.7,31.65,105.74,81.94,140.21-.39,4.57-.59,9.19-.59,13.85,0,100.77,93.3,182.47,208.39,182.47,50.78,0,97.3-15.91,133.46-42.33,41.2,43.81,102.69,71.64,171.39,71.64,124.04,0,224.59-90.64,224.59-202.45,0-8.37-.57-16.62-1.67-24.72,78.84-31.38,132.68-94.41,132.68-167.07Z"/>
</svg>