<?xml version="1.0" encoding="UTF-8"?>
<svg id="Layer_1" data-name="Layer 1" xmlns="http://www.w3.org/2000/svg" viewBox="0 0 1145.75 1080">
  <defs>
    <style>
      .cls-1 {
        fill: #494949;
      }
    </style>
  </defs>
  <path class="cls-1" d="M897.3,762.1c-6.01-9.15-12.02-18.3-18.03-27.45-3.13-20.98-10.36-36.3-15.62-45.49-7.96-13.9-16.91-29.52-34.37-34.46-7.43-2.1-14.13-1.63-18.62-.88-10.11-24.25-20.21-48.49-30.32-72.74-8.28,22.68-16.56,45.37-24.84,68.05-6.38,3.92-16.12,10.53-26.44,20.43-20.67,19.85-26.09,30.31-39.39,40.86-10.57,8.39-28.19,17.64-58.28,18.46-40.72-5.07-73.64-10.13-95.67-13.7-102.65-16.67-160.21-31.49-210.82,0-.07.04-.14.09-.2.13-87.92-59.71-132.27-140.75-111.98-194.43,10.77-28.49,39.79-49.37,53.33-59.11,42.77-30.78,86.95-37.01,108.77-38.56,5.79-11.83,6.87-20.31,3.23-25.44-9.23-13.02-48.79-4.54-118.67,25.44,0,0-224.63,116.83,38.2,317.98-23.38,35.42-21.39,62.97-19.75,73.73,3.53,23.21,16.72,42.36,26.45,56.48,20.79,30.18,37.21,37.1,36.31,53.36-.49,8.74-5.98,20.24-27.04,33.11-3.34,14.13-6.74,38.29,1,66.98,5.89,21.82,16.14,38.55,24.24,49.47,129.79,26.16,65.83-18.63,65.83-18.63-20.7,6.02-47.8-22.57-47.8-22.57,0,0-5.94-31.42,18.14-53.81,12.79-11.89,20.34-8.25,37.74-18.43,19.14-11.19,30.37-27.75,36.91-40.2,23.44-7.07,55.82-14.09,94.68-14.38,54.54-.41,98.08,12.61,125.16,23.15,7.07,12.27,15.98,30.8,20.62,54.54,8.42,43.04-4.48,65.94,9.48,85.09,7.81,10.71,24.87,21.4,66.12,19.3,0,0,35-20.91-31.12-47.45,2.57-54.13,5.14-108.27,7.71-162.4,21.81-22.08,33.16-47.11,39.08-63.61,37.75-18.65,63.17-19.18,79.91-15.57,5.55,1.2,15.77,4.06,24.03-1.2,10.46-6.66,12.26-22.82,12.02-36.05Z"/>
  <path class="cls-1" d="M619.9,908.9c-3.15,99.87,1.2,131.33,7.21,136.19.02.01.05.04.1.08,5.61,4.54,6.01,9.55,8.91,12.42,2.32,2.29,5.52,2.53,10.82,2.55,14.79.04,30.83-1.71,37.85-2.55,3.31-2.33,4.38-4.56,4.67-6.28,1.39-8.27-12.73-19.16-35.21-27.63,6.31-39.12,12.61-78.25,18.92-117.37"/>
  <path class="cls-1" d="M482.91,903.75s13.23,38.16-19.81,58.59c-33.05,20.43-42.66,53.48,0,57.08,42.66,3.61,29.44,25.84,29.44,25.84,0,0-66.09,9.01-81.12-7.81-15.02-16.82,0-79.31,0-79.31,0,0,60.69-29.44,8.41-60.69"/>
</svg>