<?xml version="1.0" encoding="UTF-8"?>
<svg id="Layer_1" data-name="Layer 1" xmlns="http://www.w3.org/2000/svg" viewBox="0 0 1145.75 1080">
  <defs>
    <style>
      .cls-1 {
        fill: #494949;
      }
    </style>
  </defs>
  <path class="cls-1" d="M822.05,1035.01c-15.34-48.83-30.68-97.67-46.01-146.5-6.58-.09-15.06.6-24.37,3.61-25.06,8.08-38.59,27.2-43.2,34.47,15.5,14.08,36.77,36.87,52.47,69.88,18.01,37.88,17.23,63,37.7,76.87,10.97,7.44,30.64,11.73,68.75-4.19,0,0,25.87-31.51-45.33-34.13Z"/>
  <path class="cls-1" d="M498.91,876.3c-17.12-21.62-36.48-14.04-71.32-35.79-34.5-21.54-36.26-41.91-61.47-46.42-20.11-3.59-38.75,5.85-51.32,14.36,2.99,24.09,8.8,42.72,13.88,55.78,7.98,20.52,15.43,30.61,11.4,41.09-4.79,12.46-22.66,17.37-38.02,19.53-8.71,11.62-21.49,32.4-25.87,61.79-3.33,22.36-.62,41.78,2.43,55.04,108.49,75.88,67.78,9.25,67.78,9.25-21.38-2.76-34.78-39.81-34.78-39.81,0,0,7.12-31.17,38.15-42.06,16.48-5.78,21.94.57,41.96-1.8,22.02-2.61,38.93-13.29,49.91-22.08,4.84-1.4,9.69-2.83,14.56-4.28,19.27-5.73,38.21-11.63,56.81-17.67.08-12.43-1.77-31.36-14.09-46.93Z"/>
  <path class="cls-1" d="M933.51,784.21c-5.75-9.31-11.5-18.63-17.25-27.95-2.54-21.06-9.34-36.57-14.34-45.91-7.57-14.12-16.07-29.98-33.39-35.41-7.37-2.31-14.08-2.02-18.59-1.4-9.42-24.52-18.85-49.04-28.27-73.56-8.91,22.44-17.83,44.89-26.74,67.33-6.49,3.74-16.41,10.07-27,19.68-21.22,19.26-26.93,29.56-40.52,39.74-10.8,8.09-28.67,16.85-58.77,16.82-40.56-6.21-73.33-12.19-95.25-16.38-102.14-19.55-159.27-35.97-210.73-5.91-.07.04-.14.09-.21.13-86.21-62.15-128.27-144.41-106.48-197.49,11.57-28.17,41.16-48.23,54.97-57.59,43.62-29.56,87.96-34.56,109.81-35.49,6.12-11.66,7.43-20.1,3.94-25.34-8.86-13.28-48.64-5.91-119.34,22.1,0,0-227.82,110.48,29.27,318.93-24.36,34.75-23.15,62.35-21.81,73.14,2.58,20.86,12.98,38.67,21.82,52.5,7.62-5.1,16.59-8.53,24.64-10.65,24.19-6.32,49.4-13.62,72.11-2.98,18.77,8.53,40.7,11.15,55.33,24.56,11.98,11.49,20.2,25.24,26.29,40.16,18.45-3.16,39.84-5.26,63.58-4.77,54.53,1.12,97.69,15.35,124.46,26.66,16.21-8.26,33.81-18.59,51.92-31.56,7.98-5.72,15.4-11.48,22.28-17.18,0-.04,0-.08,0-.12,22.42-21.46,34.47-46.16,40.85-62.49,38.26-17.58,63.68-17.4,80.32-13.32,5.51,1.35,15.65,4.5,24.06-.53,10.65-6.37,12.9-22.47,13.02-35.7Z"/>
  <path class="cls-1" d="M673.14,1014.46c17.49-35.56,34.98-71.12,52.47-106.68l-51.7-13.12c-32.27,94.57-37.32,125.92-32.99,132.33.01.02.03.05.07.11,4.03,5.99,2.95,10.89,4.88,14.49,1.54,2.87,4.54,4.04,9.6,5.6,14.13,4.37,29.97,7.4,36.94,8.65,3.85-1.26,5.52-3.07,6.3-4.64,3.75-7.51-6.56-22.05-25.57-36.73Z"/>
  <path class="cls-1" d="M455.67,886.78s24.61,32.02-.28,61.85c-24.9,29.83-23.58,64.22,18.04,54.16,41.61-10.06,36.1,15.21,36.1,15.21,0,0-59.86,29.44-79.43,18.22-19.57-11.22-25.06-75.25-25.06-75.25,0,0,48.27-47.11-11.2-60.24"/>
</svg>