<?xml version="1.0" encoding="UTF-8"?>
<svg id="Layer_2" data-name="Layer 2" xmlns="http://www.w3.org/2000/svg" viewBox="0 0 1145.75 1080">
  <defs>
    <style>
      .cls-1 {
        fill: #d1b18f;
      }
    </style>
  </defs>
  <path class="cls-1" d="M224.61,818.59c-4.2-8.15-10.04-20.04-16.29-34.74-8.04-18.92-12.07-28.39-13.84-36.49-7.68-35.07,10.21-67.15,18.9-82.74,7.54-13.52,15.81-28.54,33.53-40.46,15.37-10.34,30.07-13.14,43.5-15.71,0,0,28.23-5.38,52.89.27.12.03.24.06.24.06.26.06.53.13,1.57.39,0,0,20.33,5.01,41.28,9.32,14.05,2.89,84.07,12.07,178.99,4.26,51.22-4.21,111.67-13.55,123.54-15.36,0,0,0,0,0,0,11.99-9.75,26.01-22.86,39.64-40.08,13.95-17.63,15.79-26.58,32.41-47.04,14.69-18.1,22.03-27.14,33.42-32.42,19.55-9.06,47.88-9.72,67.09,4.74.34.25.57.44.78.6,31.08,24.07,32.63,60.36,32.75,65.24,17.51,15.6,33.25,21.81,44.46,24.58,12.86,3.18,22.31,2.48,24.77,8.43,2.98,7.22-6.12,19.9-17.08,25.67-11.86,6.25-24.97,3.92-25.04,5.28-.11,2.17,23.95,3.4,24.69,9.35.6,4.83-14.46,10.37-16.78,11.22-9.74,3.58-19.24,5.45-41.51,6.65-7.27.39-17.05.79-28.69.9-8.48,4.85-18.48,12.62-22.21,24.68-1.64,5.3-1.69,9.65-1.47,11.4,2.67,21.09.71,82.28-15.37,112.46-6.32,11.86-19.42,27.54-50.01,39.06-44.65,16.81-84.37,17.93-103.21,16.23-121.43-10.9-181.61-49.07-273.1-57.09-37.45-3.28-95.6-2.87-169.86,21.34Z"/>
  <path class="cls-1" d="M218.31,808.22s82.89-132.43,157.23-14.82c0,0-.69,25.16-7.55,50.9-7.15,26.86-27.18,38.03-44.54,54.34-11.82,11.1-86.65,81.4-72.11,119.28,10.26,26.71,61.12,27.23,60.41,41.8-.38,7.89-15.6,13.71-29.59,17.58-3.67.29-38.75,2.46-60.97-24.09-19.85-23.72-21.04-60.32-1.62-88.97,7.46-11.33,19.68-33.36,22.58-63.51,4.52-46.99-16.68-81.76-23.84-92.5Z"/>
  <path class="cls-1" d="M827.74,767.82c-84.72,179.17-77.06,242.01-52.13,265.17,19.19,17.83,56.41,19.37,55.64,30-.71,9.74-32.69,18.69-60.76,13.99-21.8-3.65-37.33-14.87-45.63-22.04-2.75-21.46-6.54-52.64-10.39-90.38-11.99-117.41-8.13-136.98,2.6-152.94,6.76-10.06,31.83-41.88,110.67-43.8Z"/>
  <path class="cls-1" d="M757.21,727.15c-84.72,179.17-77.06,242.01-52.13,265.17,19.19,17.83,56.41,19.37,55.64,30-.71,9.74-32.69,18.69-60.76,13.99-21.8-3.65-37.33-14.87-45.63-22.04-2.75-21.46-6.54-52.64-10.39-90.38-11.99-117.41-8.13-136.98,2.6-152.94,6.76-10.06,31.83-41.88,110.67-43.8Z"/>
  <path class="cls-1" d="M776.39,505.02l15.9-82.08s29.3,41.77,41.07,66.35l-56.97,15.73Z"/>
  <path class="cls-1" d="M236.6,646.36s-128.69-87.2,5.24-161.58c0,0-56.04,100.98,30.52,136.75l-35.76,24.83Z"/>
  <path class="cls-1" d="M405.51,797.81s15.84,64.7-43.65,93.22c-59.49,28.52-43.07,101.94-43.07,101.94,0,0,171.69,48.91-18.87,32.55,0,0-3.92-2.93-8.51-8.61-8.27-10.24-11.21-20.38-12.51-25.1-1.07-3.92-6.7-25.75,2.91-48.97,7.96-19.22,17.89-18.94,25.21-32.37,19.36-35.48-30.92-76.81-16.15-110.81,6.47-14.9,24.39-32.05,76.02-39.75,12.87,12.63,25.75,25.26,38.62,37.89Z"/>
</svg>