<?xml version="1.0" encoding="UTF-8"?>
<svg id="Layer_2" data-name="Layer 2" xmlns="http://www.w3.org/2000/svg" viewBox="0 0 1145.75 1080">
  <defs>
    <style>
      .cls-1 {
        fill: #d1b18f;
      }
    </style>
  </defs>
  <path class="cls-1" d="M224.61,818.59c-4.2-8.15-10.04-20.04-16.29-34.74-8.04-18.92-12.07-28.39-13.84-36.49-7.68-35.07,10.21-67.15,18.9-82.74,7.54-13.52,15.81-28.54,33.53-40.46,15.37-10.34,30.07-13.14,43.5-15.71,0,0,28.23-5.38,52.89.27.12.03.24.06.24.06.26.06.53.13,1.57.39,0,0,20.33,5.01,41.28,9.32,14.05,2.89,84.07,12.07,178.99,4.26,51.22-4.21,111.67-13.55,123.54-15.36,0,0,0,0,0,0,11.99-9.75,26.01-22.86,39.64-40.08,13.95-17.63,15.79-26.58,32.41-47.04,14.69-18.1,22.03-27.14,33.42-32.42,19.55-9.06,47.88-9.72,67.09,4.74.34.25.57.44.78.6,31.08,24.07,32.63,60.36,32.75,65.24,17.51,15.6,33.25,21.81,44.46,24.58,12.86,3.18,22.31,2.48,24.77,8.43,2.98,7.22-6.12,19.9-17.08,25.67-11.86,6.25-24.97,3.92-25.04,5.28-.11,2.17,23.95,3.4,24.69,9.35.6,4.83-14.46,10.37-16.78,11.22-9.74,3.58-19.24,5.45-41.51,6.65-7.27.39-17.05.79-28.69.9-8.48,4.85-18.48,12.62-22.21,24.68-1.64,5.3-1.69,9.65-1.47,11.4,2.67,21.09.71,82.28-15.37,112.46-6.32,11.86-19.42,27.54-50.01,39.06-44.65,16.81-84.37,17.93-103.21,16.23-121.43-10.9-181.61-49.07-273.1-57.09-37.45-3.28-95.6-2.87-169.86,21.34Z"/>
  <path class="cls-1" d="M217.13,776.72s126.64-91.49,151.25,45.46c0,0-10.11,23.05-26.15,44.31-16.74,22.19-39.5,25-61.72,33.58-15.12,5.84-110.92,42.8-111.71,83.36-.55,28.61,46.37,48.23,40.23,61.46-3.33,7.17-19.61,6.83-34.03,5.14-3.51-1.12-36.82-12.31-47.42-45.26-9.47-29.44,3.21-63.8,31.99-83.04,11.17-7.69,30.79-23.5,44.83-50.34,21.87-41.83,15.32-82.03,12.73-94.67Z"/>
  <path class="cls-1" d="M815.16,744.8c23.22,196.82,63.06,246.03,96.47,252.44,25.73,4.94,58.1-13.5,63.08-4.08,4.56,8.63-17.8,33.18-44.08,44.09-20.41,8.47-39.53,7.19-50.37,5.52-13.71-16.74-33.47-41.16-56.75-71.1-72.45-93.17-79.55-111.81-78.93-131.03.39-12.11,4.76-52.38,70.58-95.84Z"/>
  <path class="cls-1" d="M806.6,756.32c-140.85,139.43-155.11,201.11-139.6,231.39,11.95,23.32,46.4,37.48,42.04,47.21-3.99,8.91-37.11,6.39-61.88-7.61-19.24-10.88-30-26.73-35.35-36.3,4.75-21.11,11.85-51.71,21.12-88.49,28.85-114.44,39.17-131.51,54.7-142.85,9.79-7.14,44.22-28.48,118.97-3.35Z"/>
  <path class="cls-1" d="M776.39,505.02l15.9-82.08s29.3,41.77,41.07,66.35l-56.97,15.73Z"/>
  <path class="cls-1" d="M236.6,646.36s-128.69-87.2,5.24-161.58c0,0-56.04,100.98,30.52,136.75l-35.76,24.83Z"/>
  <path class="cls-1" d="M408.02,797.2s-.15,66.61-64.74,80.03c-64.59,13.41-66.27,88.62-66.27,88.62,0,0,154.94,88.68-26.13,27.07,0,0-3.11-3.78-6.2-10.4-5.58-11.92-6-22.47-6.12-27.37-.1-4.06-.33-26.6,14.57-46.84,12.33-16.75,21.91-14.09,32.24-25.37,27.31-29.8-11.59-81.98,10.91-111.44,9.86-12.91,31.37-25.26,83.33-20.35,9.47,15.35,18.94,30.7,28.41,46.05Z"/>
</svg>