<?xml version="1.0" encoding="UTF-8"?>
<svg id="Layer_3" data-name="Layer 3" xmlns="http://www.w3.org/2000/svg" viewBox="0 0 1145.75 1080">
  <defs>
    <style>
      .cls-1 {
        fill: #5b4a42;
      }
    </style>
  </defs>
  <path class="cls-1" d="M364.22,678.31c-19.45,23.06-30.83,44.09-37.7,59.36-16.16,35.95-18.59,65.07-39.98,72.53-10.13,3.53-20.15.57-28.08,9.2-6.04,6.58-6.49,14.76-7.16,21.47-1.19,11.99-2.48,13.06-5.69,22.48-3.69,10.82-9.6,33-11.47,44.43-1.99,12.18-3.86,32.55.42,59.57,19.32,18.65,21.35,27.91,19.15,32.93-2.3,5.25-9.21,5.79-14.59,14.21-3.83,5.99-4.58,12.38-4.64,16.75,16.94,10.31,31.68,17.04,42.36,21.38,14.66,5.95,19.2,6.36,22.88,4.54,13.64-6.76,7.94-40.66,7.57-42.74.2-1.66.31-3.38.33-5.16.19-15.44-6.98-27.82-12.63-35.36-6.39-6.86-16.53-20-19.61-38.79-5.78-35.26,17.99-61.86,22.86-67.27,11.16-12.41,22.95-18.63,29.44-21.98,44.29-22.85,88.4-42.8,117.64-55.6-27.04-37.32-54.07-74.64-81.11-111.96Z"/>
  <path class="cls-1" d="M390.17,659.55c-6.59,29.44-6.97,53.35-6,70.07,2.28,39.35,13.59,66.3-1.93,82.79-7.36,7.82-17.61,9.82-20.65,21.14-2.32,8.63,1.07,16.09,3.58,22.35,4.49,11.19,3.84,12.72,5.35,22.57,1.73,11.29,6.74,33.7,10.37,44.7,3.87,11.72,11.62,30.65,27.9,52.63,25.76,7.61,31.83,14.89,32.2,20.35.38,5.72-5.49,9.4-6.37,19.35-.63,7.08,1.66,13.1,3.63,17,19.78,1.31,35.97.47,47.45-.62,15.74-1.5,19.97-3.23,22.39-6.55,8.97-12.3-11.75-39.73-13.04-41.4-.59-1.56-1.28-3.14-2.09-4.73-6.97-13.78-19.05-21.45-27.54-25.52-8.83-3.13-23.9-10.1-35.32-25.34-21.43-28.6-12.64-63.17-10.82-70.22,4.16-16.17,11.74-27.13,15.95-33.09,28.71-40.73,58.61-78.81,78.62-103.67-41.23-20.6-82.45-41.2-123.68-61.8Z"/>
  <path class="cls-1" d="M338.4,756.89c11.53,5.81,28.12,13.93,48.36,23.07,33.8,15.25,65.82,27.91,82.18,33.66,20.51,7.21,86.43,30.37,164.67,23.36,81.8-7.32,142.89-44.55,176.45-69.59,1.85-11.45,5.64-28.19,14.18-46.95,6.96-15.27,12.99-28.51,26.61-40.58,6.84-6.05,28.98-23.68,55-20.15,5.53.75,19.52,2.65,26.78,13.63,2.06,3.12,3.05,6.16,3.56,8.3,6.27,2.38,19.87,6.45,35.48,2.11,6.8-1.89,17.04-4.73,23.18-14.56,5.91-9.45,5.68-21.6,1.43-30.22-5.01-10.16-16.16-16.54-20.39-18.96,0,0-12.5-7.15-17.35-14.74-.62-.96-1.02-1.83-1.08-1.98-1.61-4.43-1.27-8.25-1.01-10.95,0,0,.26-2.66-.72-12.63-1.15-11.76-15.14-20.48-25.79-27.12-6.07-3.78-15.49-8.79-28.18-12.31,8.14-8.01,19.47-21.32,26.61-40.45,11.57-31.01,9.69-70.69-2.49-74.67-11.66-3.81-31.33,25.54-38.75,38.77-10.54,18.77-14.06,36.52-15.4,47.84-13.35,2.69-45.45,9.93-76.56,25.29-16.3,8.05-30.58,17.45-32.12,18.48-9.19,6.1-16.29,11.57-21.32,15.57-14.01,11.12-33.08,27.88-53.18,51.33-15.09.23-38.03-.18-65.61-3.91-58.37-7.89-69.79-21.46-118.63-27.59-32.97-4.14-73.23-9.18-114.14,11.6-13.77,7-47.68,24.21-61.48,63.76-14.85,42.55,4.91,81.69,9.68,90.59Z"/>
  <path class="cls-1" d="M878.31,852.55c-2.23-7.89-10.52-9.71-18.4-17.57-7.94-7.92-9.95-16.46-12.28-22.91-4.6-12.69-17.08-35.42-50.95-79.36-18.37,21.34-36.74,42.67-55.11,64.01,20.38,11.5,36.91,22.6,49.46,31.69,24.81,17.98,30.83,25.76,31.54,34.69.45,5.69-1.27,11.57,2.79,16.74,3.96,5.04,9.89,5.17,15.38,6.67,3.38.92,6.26,2.56,8.81,4.71,7.95-9.34,17.27-16.71,27.4-22.87-.33-.63-.66-1.25-.99-1.89,1.78-3.36,3.85-8.59,2.34-13.91Z"/>
  <path class="cls-1" d="M834.45,976.47c7.79,5.63,16,13.41,15.08,21.6-1.05,9.3-13.14,12.2-12.35,18.81.66,5.56,9.61,6.88,32.21,16.03,20.67,8.37,24.53,11.86,28.21,9.64,9.33-5.61-.08-37.28-4.55-50.93-2.1-2.11-5.01-5.24-8.11-9.33,0,0-2.01-2.65-3.73-5.29-9.83-15.09-8.84-48.8-8.84-48.8.43-6.15.88-12.31,1.33-18.48,1.14-15.48,2.35-30.86,3.61-46.15-3.76.12-11.56.87-19.75,5.76-9.42,5.62-13.95,13.47-15.64,16.82,1.57,9.47-1.73,20.56-4.11,32.98-2.54,13.31-4.83,32.42-3.36,57.35Z"/>
  <path class="cls-1" d="M716.53,853.13c-1.1,9.65-7.57,19.43-13.5,30.79-6.28,12.01-13.98,29.65-19.77,53.94,5.83,7.64,11.45,17.46,8.2,25.03-3.69,8.6-16.1,7.89-17.25,14.45-.97,5.52,7.22,9.37,26.21,24.64,17.37,13.98,20.06,18.43,24.23,17.37,10.55-2.68,10.69-35.72,10.34-50.08-1.4-2.63-3.28-6.46-5.07-11.28,0,0-1.16-3.12-2.04-6.14-5.06-17.28,5.63-49.28,5.63-49.28,2.02-4.72,4.01-9.9,5.85-15.54,2.47-7.57,4.25-14.68,5.54-21.14-3.26-2.24-7.18-4.61-11.76-6.8-6.14-2.94-11.84-4.78-16.6-5.97Z"/>
  <path class="cls-1" d="M752.16,855.93c1.27-8.1-5.51-13.21-9.4-23.64-3.92-10.51-2.18-19.11-1.61-25.95,1.11-13.46-.76-39.31-13.21-93.38-25.59,11.73-51.18,23.47-76.78,35.2,13.73,18.95,24.13,35.93,31.74,49.43,15.06,26.69,17.28,36.27,14.21,44.68-1.96,5.36-5.98,9.99-4.44,16.38,1.5,6.23,6.83,8.82,11.2,12.47,2.58,2.16,4.47,4.72,5.88,7.6,3.69-1.6,9.64-3.64,17.2-3.89,5.56-.18,10.21.66,13.55,1.54-.08-.97-.14-3.19,1.08-5.56.84-1.62,1.94-2.66,2.65-3.23,3.02-2.31,7.08-6.2,7.93-11.67Z"/>
  <path class="cls-1" d="M385.83,609.2c-21.03,2.71-89.29,14.17-146.71,72.67-61.06,62.2-72.92,161.96-71.12,162.58.6.21,3.29-10.26,14.72-35.69,25.08-55.78,44.49-98.96,80.44-128.62,14.95-12.34,50.53-37,114.04-40.05,2.88-10.29,5.75-20.58,8.63-30.88Z"/>
  <path class="cls-1" d="M151.13,836.55c3.06-4.7,23.75-36.14,33.56-32.19,5.99,2.41,7.87,18,4.65,29.77-1.42,5.18-3.69,9.13-5.44,11.7-1.83,2.71-4.18,6-7.17,9.73-5.23,6.52-6.69,7.27-10.99,12.38-9.68,11.51-11.35,18.6-15.46,18.15-2.14-.23-4.15-2.41-4.55-4.44-.51-2.56,1.5-4.94,2.17-5.75,7.38-9.07,12.76-27.7,12.17-28.03-.52-.29-5.77,13.51-13.6,13.71-2.29.06-5.07-1.05-5.96-3.04-.95-2.13.57-4.57,2.55-7.89,1.9-3.19,4.68-7.94,8.09-14.1Z"/>
</svg>