<?xml version="1.0" encoding="UTF-8"?>
<svg id="Layer_3" data-name="Layer 3" xmlns="http://www.w3.org/2000/svg" viewBox="0 0 1145.75 1080">
  <defs>
    <style>
      .cls-1 {
        fill: #5b4a42;
      }
    </style>
  </defs>
  <path class="cls-1" d="M774.12,848.24c-4.17,8.78-13.44,15.93-22.74,24.76-9.83,9.33-22.82,23.53-36.16,44.64,3.05,9.11,5.19,20.23-.34,26.34-6.28,6.95-17.78,2.26-20.99,8.09-2.7,4.91,3.8,11.2,16.83,31.8,11.92,18.84,13.02,23.93,17.3,24.28,10.85.88,21.66-30.34,25.99-44.04-.48-2.94-1.02-7.18-1.15-12.31,0,0-.09-3.33.05-6.47.81-17.99,21.26-44.81,21.26-44.81,3.44-3.81,7-8.07,10.56-12.81,4.79-6.36,8.77-12.52,12.08-18.22-2.36-3.17-5.3-6.68-8.93-10.24-4.86-4.76-9.65-8.35-13.77-11.01Z"/>
  <path class="cls-1" d="M831.96,849.56c.33-6.6-4.92-10.39-12.09-19.23-5.8-7.15-9.85-15.57-14.79-23.34-6.76-10.66-18.32-32.29-39.35-80.26-19.79,20.02-39.58,40.05-59.37,60.07,19.55,12.87,35.27,25.08,47.17,35.01,23.52,19.64,28.99,27.82,29.09,36.77.06,5.71-2.06,11.46,1.63,16.89,3.61,5.3,9.51,5.83,14.88,7.71,3.18,1.11,5.85,2.83,8.18,5.03,1.44-1.4,3.37-3.11,5.82-4.82,4.81-3.38,6.68-2.75,8.9-4.9,3.34-3.23,1.56-6.6,3.61-14.42,2.4-9.15,6.04-9.12,6.31-14.51Z"/>
  <path class="cls-1" d="M350.35,664.23c-10.74,28.19-14.54,51.8-15.98,68.49-3.38,39.27,3.95,67.56-13.78,81.66-8.4,6.68-18.83,7.19-23.47,17.96-3.53,8.21-1.25,16.08.34,22.63,2.84,11.71,1.98,13.14,2.06,23.1.09,11.43,1.84,34.31,3.85,45.72,2.15,12.16,7.11,32,20.07,56.09,24.4,11.22,29.37,19.29,28.95,24.76-.44,5.72-6.78,8.51-9.08,18.23-1.64,6.92-.24,13.2,1.15,17.35,19.39,4.13,35.53,5.62,47.05,6.18,15.8.77,20.22-.34,23.09-3.27,10.64-10.89-5.94-41-6.97-42.84-.36-1.63-.82-3.29-1.39-4.98-4.93-14.63-15.78-23.96-23.6-29.2-8.29-4.36-22.21-13.42-31.32-30.14-17.11-31.38-3.45-64.33-.65-71.04,6.44-15.4,15.51-25.16,20.53-30.47,34.25-36.2,69.3-69.6,92.67-91.33-37.85-26.3-75.69-52.59-113.54-78.89Z"/>
  <path class="cls-1" d="M357.99,636.57c-19.81,22.75-31.52,43.6-38.63,58.76-16.73,35.69-19.61,64.77-41.11,71.89-10.19,3.37-20.16.25-28.22,8.76-6.15,6.48-6.72,14.66-7.49,21.35-1.38,11.97-2.68,13.02-6.04,22.39-3.85,10.76-10.12,32.84-12.16,44.24-2.18,12.15-4.37,32.49-.52,59.57,19.03,18.95,20.91,28.25,18.63,33.23-2.39,5.21-9.3,5.65-14.81,13.98-3.92,5.93-4.78,12.31-4.91,16.68,16.77,10.57,31.41,17.54,42.02,22.04,14.56,6.18,19.1,6.67,22.8,4.9,13.75-6.54,8.58-40.53,8.24-42.62.22-1.66.37-3.37.42-5.15.43-15.43-6.54-27.93-12.07-35.55-6.28-6.96-16.21-20.26-19-39.09-5.23-35.35,18.96-61.57,23.91-66.9,11.36-12.23,23.24-18.26,29.78-21.51,44.64-22.15,89.06-41.4,118.5-53.74-26.45-37.74-52.89-75.48-79.34-113.23Z"/>
  <path class="cls-1" d="M338.4,756.89c11.53,5.81,28.12,13.93,48.36,23.07,33.8,15.25,65.82,27.91,82.18,33.66,20.51,7.21,86.43,30.37,164.67,23.36,81.8-7.32,142.89-44.55,176.45-69.59,1.85-11.45,5.64-28.19,14.18-46.95,6.96-15.27,12.99-28.51,26.61-40.58,6.84-6.05,28.98-23.68,55-20.15,5.53.75,19.52,2.65,26.78,13.63,2.06,3.12,3.05,6.16,3.56,8.3,6.27,2.38,19.87,6.45,35.48,2.11,6.8-1.89,17.04-4.73,23.18-14.56,5.91-9.45,5.68-21.6,1.43-30.22-5.01-10.16-16.16-16.54-20.39-18.96,0,0-12.5-7.15-17.35-14.74-.62-.96-1.02-1.83-1.08-1.98-1.61-4.43-1.27-8.25-1.01-10.95,0,0,.26-2.66-.72-12.63-1.15-11.76-15.14-20.48-25.79-27.12-6.07-3.78-15.49-8.79-28.18-12.31,8.14-8.01,19.47-21.32,26.61-40.45,11.57-31.01,9.69-70.69-2.49-74.67-11.66-3.81-31.33,25.54-38.75,38.77-10.54,18.77-14.06,36.52-15.4,47.84-13.35,2.69-45.45,9.93-76.56,25.29-16.3,8.05-30.58,17.45-32.12,18.48-9.19,6.1-16.29,11.57-21.32,15.57-14.01,11.12-33.08,27.88-53.18,51.33-15.09.23-38.03-.18-65.61-3.91-58.37-7.89-69.79-21.46-118.63-27.59-32.97-4.14-73.23-9.18-114.14,11.6-13.77,7-47.68,24.21-61.48,63.76-14.85,42.55,4.91,81.69,9.68,90.59Z"/>
  <path class="cls-1" d="M775.92,1002.15c-1.93,11.02-17.69,13.66-17.08,21.6.52,6.68,11.99,8.85,40.58,21.28,26.16,11.37,30.93,15.79,35.82,13.4,12.38-6.07,2.17-44.46-2.77-61.04-2.58-2.66-6.14-6.58-9.9-11.67,0,0-2.43-3.3-4.49-6.55-11.77-18.65-8.43-58.79-8.43-58.79,2.68-6.65,5.29-13.79,7.73-21.38,3.01-9.37,5.41-18.3,7.31-26.68-8.18-2.22-16.99-4.99-26.26-8.45-7.22-2.69-13.92-5.51-20.08-8.33-2.88.21-6.23,1.53-9.11,1.74,2.88-.21,6.23-1.53,9.11-1.74-3.42-.13-6.8.08-10.08.62.16.23.32.46.48.7,9.2,13.88,2,30.64-3.15,50.39-2.42,9.3-4.85,21.04-6.35,35.25.14,2.14-.09,4.21-.59,6.23-.66,8.02-1,16.76-.9,26.23.03.01.07.02.1.03-.03.04-.07.09-.1.13,0,.09,0,.18,0,.27,9.71,7.23,19.84,17.07,18.14,26.77Z"/>
  <path class="cls-1" d="M777.89,869.68c2.28.03,4.56-.58,4.56-.58,1.34-.37,2.5-.87,3.43-1.34,1.93.27,7.09.74,12.22-1.95.32-.17,4.92-2.65,7.46-7.53,4.52-8.66-1.25-17.6-3.62-28.2-2.4-10.74-.01-17.35,3.73-33.65,4.91-21.37,11.83-57.97,20.86-107.56-35.55,4.25-71.09,8.51-106.64,12.76,9.29,29.96,17.44,52.62,23.38,68.27,10.55,27.81,17.39,42.16,11.61,56.69-1.65,4.14-5.28,10.72-2.96,17.85,1.46,4.51,3.47,3.57,13.04,14.67,3.62,4.19,8.65,10.49,12.93,10.55Z"/>
  <path class="cls-1" d="M823.12,1018.46s.03.09.05.13c.01-.04.02-.09.03-.13-.03,0-.05,0-.08,0Z"/>
  <path class="cls-1" d="M385.83,609.2c-21.03,2.71-89.29,14.17-146.71,72.67-61.06,62.2-72.92,161.96-71.12,162.58.6.21,3.29-10.26,14.72-35.69,25.08-55.78,44.49-98.96,80.44-128.62,14.95-12.34,50.53-37,114.04-40.05,2.88-10.29,5.75-20.58,8.63-30.88Z"/>
  <path class="cls-1" d="M151.13,836.55c3.06-4.7,23.75-36.14,33.56-32.19,5.99,2.41,7.87,18,4.65,29.77-1.42,5.18-3.69,9.13-5.44,11.7-1.83,2.71-4.18,6-7.17,9.73-5.23,6.52-6.69,7.27-10.99,12.38-9.68,11.51-11.35,18.6-15.46,18.15-2.14-.23-4.15-2.41-4.55-4.44-.51-2.56,1.5-4.94,2.17-5.75,7.38-9.07,12.76-27.7,12.17-28.03-.52-.29-5.77,13.51-13.6,13.71-2.29.06-5.07-1.05-5.96-3.04-.95-2.13.57-4.57,2.55-7.89,1.9-3.19,4.68-7.94,8.09-14.1Z"/>
</svg>