<?xml version="1.0" encoding="UTF-8"?>
<svg id="Layer_2" data-name="Layer 2" xmlns="http://www.w3.org/2000/svg" viewBox="0 0 1145.75 1080">
  <defs>
    <style>
      .cls-1 {
        fill: none;
        stroke: #e08038;
        stroke-linecap: round;
        stroke-miterlimit: 10;
        stroke-width: 35px;
      }
    </style>
  </defs>
  <path class="cls-1" d="M533.16,711.68c11.38,12.33,9.31,34.4-4.16,44.41-13.47,10.01-35.24,5.64-43.8-8.78-10.48-17.65.37-41.72,17.7-52.74,17.33-11.02,38.88-12.46,59.4-13.57,9.15-.5,18.31-1,27.46-1.49,5.16-.28,10.44-.55,15.4.91,8.12,2.4,14.19,9.05,19.39,15.71,24.34,31.2,39.43,69.51,42.87,108.91.51,5.86.68,12.16-2.4,17.17-2.67,4.35-7.35,7.01-11.87,9.38-53.07,27.8-113.43,41.58-173.33,39.58-8.97-.3-18.14-.99-26.38-4.55-9.75-4.21-17.43-12.12-23.84-20.59-32.21-42.58-36.04-103.32-13.82-151.85s68.15-84.4,119.47-99.3c32.52-9.44,69.09-10.62,98.88,5.47,43.87,23.7,61.46,76.78,72.13,125.43,5.7,25.99,10.55,52.77,6.69,79.1-3.86,26.33-17.86,52.49-41.54,64.7"/>
  <path class="cls-1" d="M556.98,416.9v81.24"/>
  <path class="cls-1" d="M726.87,604.17c-2.31-1.84-2.2-5.58-.58-8.04s4.33-3.96,6.93-5.35c21.95-11.81,43.9-23.62,65.86-35.43"/>
  <path class="cls-1" d="M794.06,771.43c30.22-2.32,60.54-3.39,90.85-3.18,22.39.15,46.09.68,65.51-10.47"/>
  <path class="cls-1" d="M740.56,908.24c10.21,12.68,20.43,25.35,30.64,38.03,18.54,23.01,38.14,46.85,65.2,58.7"/>
  <path class="cls-1" d="M590.7,927.02c3.55,44.38-.83,89.38-12.87,132.24"/>
  <path class="cls-1" d="M432.58,900.58c.01-1.93-2.96-1.8-4.7-.96-54.28,26.07-108.34,52.62-162.17,79.63"/>
  <path class="cls-1" d="M250.42,786.45c8.09-4.73,17.97-4.87,27.34-4.88,25.06-.03,50.12-.06,75.17-.08"/>
  <path class="cls-1" d="M305.73,509.45c25.56,29.82,51.12,59.64,76.68,89.46"/>
</svg>